<mxfile host="app.diagrams.net" modified="2024-03-25T09:21:57.311Z" agent="Mozilla/5.0 (Windows NT 10.0; Win64; x64) AppleWebKit/537.36 (KHTML, like Gecko) Chrome/122.0.0.0 Safari/537.36" version="24.0.7" etag="z6GGf2tWDlYyoAAV-U_r" type="github">
  <diagram name="Page-1" id="F_aMDR30BkW7zzcbEM02">
    <mxGraphModel>
      <root>
        <mxCell id="0" />
        <mxCell id="1" parent="0" />
      </root>
    </mxGraphModel>
  </diagram>
</mxfile>
